<svg xmlns="http://www.w3.org/2000/svg" viewBox="0 0 32 32" width="32" height="32">
  <rect x="3" y="2" width="26" height="28" rx="4" fill="#5C4033"/>
  <rect x="6" y="5" width="20" height="6" rx="1" fill="#CFE8C7"/>
  <rect x="7.3" y="6.6" width="14" height="2.8" rx="0.5" fill="#3F6E33"/>

  <rect x="6" y="14" width="4.6" height="4" rx="1" fill="#8FBF7F"/>
  <rect x="13.7" y="14" width="4.6" height="4" rx="1" fill="#8FBF7F"/>
  <rect x="21.4" y="14" width="4.6" height="4" rx="1" fill="#8FBF7F"/>

  <rect x="6" y="19.3" width="4.6" height="4" rx="1" fill="#8FBF7F"/>
  <rect x="13.7" y="19.3" width="4.6" height="4" rx="1" fill="#8FBF7F"/>
  <rect x="21.4" y="19.3" width="4.6" height="4" rx="1" fill="#8FBF7F"/>

  <rect x="6" y="24.6" width="4.6" height="4" rx="1" fill="#8FBF7F"/>
  <rect x="13.7" y="24.6" width="4.6" height="4" rx="1" fill="#8FBF7F"/>
  <rect x="21.4" y="24.6" width="4.6" height="4" rx="1" fill="#3F6E33"/>
</svg>
